<?xml version="1.0" standalone="no"?>
<!DOCTYPE svg PUBLIC "-//W3C//DTD SVG 20010904//EN"
 "http://www.w3.org/TR/2001/REC-SVG-20010904/DTD/svg10.dtd">
<svg version="1.0" xmlns="http://www.w3.org/2000/svg"
 width="634.000000pt" height="185.000000pt" viewBox="0 0 634.000000 185.000000"
 preserveAspectRatio="xMidYMid meet">
<metadata>
Created by potrace 1.13, written by Peter Selinger 2001-2015
</metadata>
<g transform="translate(0.000000,185.000000) scale(0.100000,-0.100000)"
fill="#000000" stroke="none">
<path d="M5850 1251 c-136 -42 -230 -170 -230 -315 0 -53 6 -75 35 -134 40
-80 75 -114 154 -150 57 -26 148 -35 204 -19 25 7 27 11 27 58 0 46 -1 49 -19
39 -33 -17 -138 -12 -179 9 -109 56 -155 195 -101 304 29 58 46 75 103 104 41
21 60 24 105 20 31 -2 64 -8 74 -12 15 -6 17 -1 17 43 0 47 -1 50 -31 56 -41
8 -127 6 -159 -3z"/>
<path d="M220 945 l0 -305 170 0 170 0 0 40 0 39 -122 3 -123 3 -3 263 -2 262
-45 0 -45 0 0 -305z"/>
<path d="M533 1168 c24 -46 67 -127 96 -180 l51 -97 0 -125 0 -126 45 0 45 0
0 127 0 126 90 168 c50 92 90 172 90 178 0 6 -19 11 -45 11 l-45 0 -60 -119
c-32 -66 -64 -122 -69 -125 -5 -4 -40 50 -76 119 l-67 125 -49 0 -50 0 44 -82z"/>
<path d="M1040 945 l0 -305 40 0 40 0 0 220 c0 121 3 220 6 220 11 0 88 -89
300 -347 42 -51 80 -93 85 -93 5 0 9 133 9 305 l0 305 -40 0 -40 0 0 -185 c0
-102 -4 -185 -8 -185 -8 0 -230 267 -282 338 -20 27 -30 32 -67 32 l-43 0 0
-305z"/>
<path d="M1650 945 l0 -305 148 0 149 0 42 31 c47 33 80 95 81 147 0 35 -29
100 -54 121 -21 18 -20 24 10 68 22 32 25 46 22 91 -4 43 -11 59 -39 88 -57
59 -73 64 -224 64 l-135 0 0 -305z m274 204 c23 -18 27 -27 24 -67 -2 -35 -9
-49 -30 -65 -28 -21 -110 -34 -152 -23 -25 6 -26 9 -26 85 0 43 3 81 7 84 3 4
39 7 78 7 58 0 77 -4 99 -21z m17 -267 c40 -44 40 -93 0 -133 -28 -28 -34 -29
-115 -29 l-86 0 0 93 c0 52 3 97 8 101 4 4 42 6 85 4 74 -3 81 -5 108 -36z"/>
<path d="M2160 946 l0 -306 50 0 50 0 0 90 0 90 58 0 c107 -1 165 -46 187
-147 6 -31 9 -33 52 -33 l46 0 -7 52 c-8 60 -24 94 -60 127 -14 14 -26 29 -26
34 0 5 16 27 34 48 86 95 63 245 -49 314 -47 29 -53 30 -192 33 l-143 4 0
-306z m271 209 c67 -35 90 -131 46 -196 -32 -48 -79 -69 -154 -69 l-63 0 0
140 0 140 70 0 c45 0 82 -6 101 -15z"/>
<path d="M4040 945 l0 -305 45 0 45 0 0 98 c0 82 4 101 20 122 l20 25 21 -25
c11 -14 49 -68 83 -120 l63 -95 57 -3 c31 -2 56 0 56 3 0 4 -31 50 -68 103
-38 53 -87 125 -110 158 l-41 62 99 133 c55 73 100 137 100 141 0 4 -21 8 -47
8 l-48 0 -95 -129 c-52 -72 -98 -130 -102 -130 -5 -1 -8 58 -8 129 l0 130 -45
0 -45 0 0 -305z"/>
<path d="M4760 945 l0 -305 45 0 45 0 0 140 0 140 130 0 130 0 0 40 0 40 -130
0 -131 0 3 83 3 82 133 3 132 3 0 39 0 40 -180 0 -179 0 -1 -305z"/>
<path d="M5190 1210 l0 -39 73 -3 72 -3 3 -262 2 -263 45 0 45 0 2 263 3 262
78 3 77 3 0 39 0 40 -200 0 -200 0 0 -40z"/>
</g>
</svg>
